<?xml version="1.0" encoding="UTF-8" standalone="no"?>
<svg
   xmlns:dc="http://purl.org/dc/elements/1.1/"
   xmlns:cc="http://creativecommons.org/ns#"
   xmlns:rdf="http://www.w3.org/1999/02/22-rdf-syntax-ns#"
   xmlns:svg="http://www.w3.org/2000/svg"
   xmlns="http://www.w3.org/2000/svg"
   xmlns:sodipodi="http://sodipodi.sourceforge.net/DTD/sodipodi-0.dtd"
   xmlns:inkscape="http://www.inkscape.org/namespaces/inkscape"
   viewBox="0 0 272 174"
   id="svg3354"
   version="1.1"
   inkscape:version="0.91 r13725"
   sodipodi:docname="confetti-light-flipped.svg">
  <metadata
     id="metadata3368">
    <rdf:RDF>
      <cc:Work
         rdf:about="">
        <dc:format>image/svg+xml</dc:format>
        <dc:type
           rdf:resource="http://purl.org/dc/dcmitype/StillImage" />
        <dc:title />
      </cc:Work>
    </rdf:RDF>
  </metadata>
  <defs
     id="defs3366" />
  <sodipodi:namedview
     pagecolor="#ffffff"
     bordercolor="#666666"
     borderopacity="1"
     objecttolerance="10"
     gridtolerance="10"
     guidetolerance="10"
     inkscape:pageopacity="0"
     inkscape:pageshadow="2"
     inkscape:window-width="1920"
     inkscape:window-height="1017"
     id="namedview3364"
     showgrid="false"
     inkscape:zoom="1.0588235"
     inkscape:cx="136"
     inkscape:cy="86.999998"
     inkscape:window-x="1912"
     inkscape:window-y="-8"
     inkscape:window-maximized="1"
     inkscape:current-layer="svg3354" />
  <g
     id="g3356"
     transform="matrix(-1,0,0,1,272.14756,0)"
     style="fill:none;fill-rule:evenodd">
    <path
       d="M 2.15,118.697 C -0.695,113.965 0.836,107.823 5.58,104.973 L 81.834,59.155 c 4.738,-2.847 10.886,-1.314 13.728,3.415 l 30.195,50.253 c 2.844,4.733 1.258,10.79 -3.526,13.542 0,0 -21.693,12.276 -22.928,14.017 -1.234,1.742 -0.99,32.135 -0.99,32.135 0.005,1.095 -0.772,1.553 -1.744,1.022 0,0 -26.312,-14.516 -28.92,-14.138 -2.606,0.377 -21.745,12.765 -21.745,12.765 -4.644,2.957 -10.717,1.513 -13.558,-3.216 L 2.15,118.698 Z m 23.808,1.154 c -0.57,-0.946 -0.256,-2.178 0.687,-2.745 l 39.026,-23.45 c 0.95,-0.57 2.182,-0.258 2.748,0.683 l 17.093,28.448 c 0.57,0.946 0.258,2.178 -0.686,2.745 L 45.8,148.982 c -0.95,0.57 -2.18,0.26 -2.747,-0.682 L 25.96,119.85 Z M 87.885,81.348 c 0.2,-0.512 0.587,-0.542 0.864,-0.065 l 18.202,31.36 c 0,0 -25.36,-5.396 -26.562,-7.395 -1.2,-2 7.495,-23.9 7.495,-23.9 z"
       id="path3358"
       inkscape:connector-curvature="0"
       style="fill:#e0ca00" />
    <path
       d="m 45.787,14.93 c -0.378,-1.04 0.163,-2.19 1.197,-2.567 L 78.226,0.993 c 1.04,-0.38 2.185,0.148 2.567,1.197 l 7.746,21.28 c 0.377,1.04 -0.17,2.17 -1.22,2.53 0,0 -9.41,3.16 -9.94,3.663 -0.528,0.5 -2.396,10.345 -2.396,10.345 -0.103,0.532 -0.526,0.68 -0.965,0.32 0,0 -7.603,-6.307 -8.502,-6.348 -0.898,-0.04 -9.47,3.39 -9.47,3.39 -1.01,0.4 -2.133,-0.11 -2.515,-1.16 L 45.785,14.93 Z m 8.673,3.096 c -0.38,-1.04 0.163,-2.193 1.193,-2.567 l 12.9,-4.697 c 1.038,-0.378 2.183,0.15 2.565,1.2 l 3.143,8.634 c 0.38,1.04 -0.163,2.193 -1.192,2.567 l -12.9,4.696 c -1.04,0.378 -2.183,-0.15 -2.566,-1.2 l -3.142,-8.634 z m 23.6,-9.973 c 0.295,-0.462 0.678,-0.422 0.86,0.102 l 4.006,11.553 c 0,0 -8.523,-3.578 -8.806,-4.356 -0.283,-0.777 3.94,-7.3 3.94,-7.3 z m 154.15,72.845 c -0.116,-1.655 1.13,-3.09 2.78,-3.206 l 31.71,-2.218 c 1.652,-0.115 3.084,1.13 3.2,2.788 l 1.52,21.763 c 0.117,1.655 -1.136,3.06 -2.786,3.142 0,0 -9.1,0.397 -9.755,0.747 -0.656,0.35 -5.228,9.716 -5.228,9.716 -0.238,0.483 -0.685,0.495 -0.99,0.04 0,0 -5.69,-8.562 -6.554,-8.863 -0.865,-0.3 -9.21,0.564 -9.21,0.564 -1.633,0.16 -3.05,-1.05 -3.167,-2.71 L 232.21,80.9 Z m 7.532,4.617 c -0.078,-1.104 0.75,-2.06 1.848,-2.138 l 13.96,-0.976 c 1.097,-0.076 2.05,0.764 2.127,1.86 l 0.682,9.747 c 0.076,1.104 -0.75,2.06 -1.85,2.138 l -13.96,0.976 c -1.097,0.078 -2.05,-0.762 -2.127,-1.858 l -0.68,-9.747 z m 25.812,-3.087 c 0.41,-0.372 0.765,-0.23 0.795,0.318 l 0.704,12.79 c 0,0 -7.322,-6.056 -7.383,-6.918 -0.06,-0.862 5.884,-6.19 5.884,-6.19 z"
       id="path3360"
       inkscape:connector-curvature="0"
       style="fill:#f8e53d" />
    <path
       d="m 139.33,39.187 c 0.457,-1.595 2.12,-2.518 3.708,-2.062 l 30.558,8.762 c 1.59,0.456 2.51,2.116 2.052,3.714 l -6.013,20.972 c -0.458,1.595 -2.115,2.486 -3.694,2 0,0 -8.686,-2.74 -9.42,-2.636 -0.736,0.105 -8.236,7.342 -8.236,7.342 -0.39,0.373 -0.813,0.23 -0.944,-0.3 0,0 -2.417,-9.992 -3.127,-10.57 -0.71,-0.58 -8.848,-2.62 -8.848,-2.62 -1.59,-0.41 -2.507,-2.033 -2.05,-3.63 l 6.015,-20.97 z m 5.5,6.914 c 0.304,-1.062 1.408,-1.68 2.466,-1.375 l 13.452,3.857 c 1.058,0.303 1.666,1.418 1.363,2.475 l -2.692,9.392 c -0.305,1.063 -1.41,1.68 -2.468,1.376 l -13.45,-3.858 c -1.06,-0.303 -1.668,-1.418 -1.365,-2.475 l 2.694,-9.392 z m 25.31,5.93 c 0.512,-0.21 0.798,0.044 0.638,0.57 l -3.713,12.26 c 0,0 -4.808,-8.195 -4.57,-9.026 0.238,-0.83 7.645,-3.805 7.645,-3.805 z m -6.898,47.814 c 0.61,-2.123 2.823,-3.352 4.944,-2.744 l 46.328,13.286 c 2.122,0.608 3.347,2.826 2.74,4.947 l -9.134,31.85 c -0.61,2.124 -2.82,3.31 -4.925,2.66 0,0 -13.36,-4.208 -14.45,-4.055 -1.094,0.153 -12.56,11.158 -12.56,11.158 -0.393,0.376 -0.818,0.245 -0.95,-0.29 0,0 -3.736,-15.258 -4.793,-16.116 -1.057,-0.857 -13.584,-4.007 -13.584,-4.007 -2.127,-0.548 -3.357,-2.717 -2.75,-4.837 l 9.134,-31.85 z m 8.336,9.73 c 0.303,-1.057 1.404,-1.668 2.48,-1.36 l 21.84,6.263 c 1.066,0.306 1.682,1.42 1.382,2.467 l -4.517,15.753 c -0.303,1.056 -1.404,1.667 -2.48,1.36 l -21.84,-6.263 c -1.066,-0.306 -1.682,-1.42 -1.382,-2.467 l 4.518,-15.753 z m 37.835,9.57 c 0.504,-0.204 0.783,0.057 0.623,0.586 l -5.627,18.576 c 0,0 -7.17,-12.133 -6.816,-13.36 0.352,-1.23 11.82,-5.8 11.82,-5.8 z"
       id="path3362"
       inkscape:connector-curvature="0"
       style="fill:#e0ca00" />
  </g>
</svg>
