<svg xmlns="http://www.w3.org/2000/svg" viewBox="0 0 216 128">
  <g fill="none" fill-rule="evenodd">
    <path fill="#525252" d="M1.863 89.144C-.98 84.41.545 78.274 5.283 75.426L50.128 48.48C54.86 45.638 61 47.165 63.845 51.9l16.572 27.58c2.843 4.733 1.27 10.788-3.516 13.554 0 0-11.485 6.46-12.305 7.615-.82 1.155-.66 20.647-.66 20.647.006 1.1-.77 1.563-1.737 1.035 0 0-16.876-9.313-18.606-9.063-1.73.25-11.575 6.68-11.575 6.68-4.658 2.95-10.736 1.51-13.583-3.227l-16.57-27.58zm14.412-1.542c-.57-.946-.26-2.175.69-2.746L41.7 69.994c.95-.57 2.18-.268 2.75.68L55.1 88.397c.567.946.26 2.174-.692 2.746l-24.734 14.862c-.95.57-2.18.268-2.75-.68l-10.65-17.724zm40.622-25.81c.2-.513.59-.54.866-.065L69.67 82.243s-16.826-3.58-17.623-4.907c-.798-1.327 4.85-15.544 4.85-15.544zM107.205 34.805c.76-2.654 3.538-4.185 6.192-3.425l39.188 11.238c2.66.762 4.198 3.53 3.437 6.185l-7.344 25.61c-.76 2.653-3.517 4.14-6.15 3.33 0 0-10.758-3.394-11.744-3.262-.985.134-10.495 9.152-10.495 9.152-.8.75-1.665.493-1.94-.574 0 0-3.15-12.55-4.108-13.32-.957-.77-10.92-3.264-10.92-3.264-2.673-.693-4.222-3.405-3.46-6.06l7.343-25.61zm6.97 9.186c.306-1.063 1.424-1.677 2.484-1.373l18.328 5.256c1.066.306 1.683 1.414 1.378 2.48l-3.672 12.804c-.305 1.064-1.422 1.678-2.483 1.374l-18.327-5.255c-1.067-.306-1.684-1.414-1.378-2.48l3.67-12.804zm32.622 8.03c.503-.2.78.065.618.603l-4.745 15.65s-6.22-10.36-5.922-11.404c.3-1.045 10.05-4.85 10.05-4.85zM156.126 101.003c-.497-2.154.852-4.304 2.996-4.8l27.06-6.246c2.15-.497 4.3.85 4.796 3l3.94 17.07c.498 2.154-.85 4.264-3.014 4.723 0 0-7.313 1.484-7.876 1.9-.563.414-3.488 9.52-3.488 9.52-.166.513-.61.603-.995.2 0 0-6.475-6.85-7.327-6.994-.85-.143-7.41 1.61-7.41 1.61-2.12.545-4.244-.762-4.74-2.913l-3.942-17.07zm7.215 2.342c-.124-.543.215-1.085.74-1.206l13.91-3.212c.533-.123 1.066.21 1.193.76l2.262 9.797c.125.542-.214 1.084-.74 1.206l-13.908 3.21c-.534.125-1.067-.208-1.194-.758l-2.262-9.797zm22.735-5.573c.348-.42.724-.327.84.216l2.33 10.847s-7.355-4.195-7.525-4.933c-.17-.737 4.355-6.13 4.355-6.13z"/>
    <path fill="#3D3700" d="M94.257 105.098c.115-1.1 1.098-1.9 2.207-1.784l20.163 2.12c1.103.115 1.904 1.1 1.788 2.203l-1.393 13.25c-.116 1.102-1.1 1.882-2.194 1.745 0 0-5.736-.75-6.19-.61-.452.143-4.158 5.1-4.158 5.1-.323.427-.77.37-.998-.127 0 0-2.514-5.552-3.03-5.832-.514-.28-5.826-.664-5.826-.664-1.09-.087-1.878-1.048-1.762-2.15l1.393-13.252zm3.24 3.236c.057-.548.552-.945 1.1-.888l9.46.995c.552.06.95.55.893 1.098l-.685 6.52c-.058.548-.553.945-1.1.888l-9.462-.995c-.55-.057-.95-.55-.892-1.096l.686-6.52zm16.31 1.37c.46-.28.775-.06.71.486l-.907 7.514s-3.96-4.506-3.903-5.04c.056-.533 4.1-2.96 4.1-2.96zM189.236 64.878c-.23-1.083.456-2.147 1.547-2.38l19.83-4.214c1.087-.23 2.152.458 2.383 1.544l2.77 13.032c.23 1.083-.464 2.13-1.548 2.337 0 0-5.687 1.058-6.074 1.333-.387.276-2.38 6.134-2.38 6.134-.175.507-.618.59-.988.188 0 0-4.107-4.503-4.683-4.61-.577-.108-5.747 1.17-5.747 1.17-1.062.253-2.11-.416-2.34-1.502l-2.77-13.032zm4.08 2.077c-.114-.54.234-1.07.773-1.185l9.305-1.978c.54-.115 1.073.23 1.187.768l1.363 6.413c.115.54-.234 1.07-.772 1.184l-9.306 1.978c-.54.115-1.073-.23-1.188-.767l-1.364-6.413zm15.938-3.737c.348-.408.717-.298.823.242l1.46 7.426s-5.157-3.062-5.27-3.586c-.11-.525 2.987-4.082 2.987-4.082z"/>
    <path fill="#4E4600" d="M17.9 11.946c-.497-2.154.852-4.304 2.996-4.8L47.956.9c2.15-.497 4.3.85 4.796 3l3.94 17.07c.498 2.154-.85 4.264-3.014 4.722 0 0-7.313 1.484-7.876 1.9-.563.415-3.488 9.52-3.488 9.52-.166.514-.61.604-.995.202 0 0-6.476-6.853-7.328-6.996-.85-.143-7.41 1.61-7.41 1.61-2.12.546-4.244-.76-4.74-2.912L17.9 11.946zm7.215 2.34c-.125-.54.214-1.083.74-1.205l13.908-3.21c.534-.123 1.067.21 1.194.76l2.262 9.797c.124.543-.215 1.085-.74 1.206l-13.91 3.21c-.533.124-1.066-.208-1.193-.758l-2.262-9.798zm22.734-5.57c.347-.422.723-.328.84.214l2.33 10.848s-7.355-4.195-7.526-4.933c-.17-.738 4.355-6.13 4.355-6.13z"/>
    <path fill="#525252" d="M180.425 23.158c.115-1.094 1.096-1.886 2.19-1.772l19.034 2c1.093.116 1.887 1.092 1.77 2.19l-1.307 12.45c-.115 1.093-1.1 1.865-2.195 1.73 0 0-5.362-.704-5.793-.57-.432.137-3.934 4.82-3.934 4.82-.32.426-.766.367-1-.14 0 0-2.368-5.23-2.858-5.498-.49-.266-5.453-.624-5.453-.624-1.09-.086-1.88-1.038-1.763-2.135l1.308-12.452zm3.087 3.047c.058-.55.546-.947 1.09-.89l8.93.94c.546.057.94.55.884 1.096l-.643 6.11c-.057.55-.545.948-1.09.89l-8.93-.938c-.545-.058-.94-.55-.883-1.097l.642-6.11zm15.49 1.283c.46-.28.778-.074.71.484l-.855 7.104s-3.77-4.29-3.716-4.797c.055-.51 3.863-2.792 3.863-2.792z"/>
  </g>
</svg>
