<?xml version="1.0" encoding="UTF-8" standalone="no"?>
<svg xmlns="http://www.w3.org/2000/svg" viewBox="0 0 272 174"><g fill="none" fill-rule="evenodd"><path d="M269.998 118.697c2.845-4.732 1.314-10.874-3.43-13.724l-76.254-45.818c-4.738-2.847-10.886-1.314-13.728 3.415l-30.195 50.253c-2.84 4.733-1.25 10.79 3.53 13.542 0 0 21.7 12.276 22.93 14.017 1.24 1.742.99 32.135.99 32.135 0 1.095.77 1.553 1.75 1.022 0 0 26.31-14.52 28.92-14.14 2.61.37 21.75 12.76 21.75 12.76 4.647 2.95 10.72 1.51 13.56-3.22L270 118.69zm-23.808 1.154c.57-.94.256-2.17-.687-2.74l-39.026-23.45c-.95-.57-2.182-.26-2.748.69l-17.1 28.45c-.57.95-.26 2.18.68 2.75L226.33 149c.95.57 2.18.26 2.747-.683l17.093-28.45zm-61.927-38.5c-.2-.51-.587-.54-.864-.06l-18.21 31.36s25.36-5.39 26.56-7.39c1.2-2-7.5-23.9-7.5-23.9z" fill="#fefbbb"/><path d="M226.36 14.93c.38-1.04-.162-2.19-1.196-2.567L193.922.993c-1.04-.38-2.185.148-2.567 1.197l-7.746 21.28c-.38 1.04.17 2.17 1.22 2.53 0 0 9.41 3.16 9.94 3.663.52.5 2.39 10.345 2.39 10.345.1.532.52.68.96.32 0 0 7.6-6.307 8.5-6.348.9-.04 9.47 3.39 9.47 3.39 1.01.4 2.13-.11 2.51-1.16l7.743-21.28zm-8.672 3.096c.38-1.04-.163-2.193-1.193-2.567l-12.9-4.7c-1.038-.38-2.183.15-2.565 1.2l-3.143 8.63c-.38 1.04.163 2.19 1.192 2.56l12.9 4.69c1.04.377 2.18-.15 2.56-1.2l3.14-8.635zm-23.6-9.973c-.295-.462-.678-.422-.86.102l-4.006 11.553s8.523-3.578 8.806-4.356c.283-.777-3.94-7.3-3.94-7.3zM39.938 80.898c.116-1.655-1.13-3.09-2.78-3.206l-31.71-2.218c-1.652-.115-3.084 1.13-3.2 2.788l-1.52 21.763c-.117 1.655 1.136 3.06 2.786 3.142 0 0 9.1.397 9.755.747.65.35 5.22 9.716 5.22 9.716.24.483.68.495.99.04 0 0 5.69-8.562 6.55-8.863.86-.3 9.21.564 9.21.564 1.63.16 3.05-1.05 3.16-2.71l1.52-21.76zm-7.532 4.617c.078-1.104-.75-2.06-1.848-2.138l-13.96-.976c-1.097-.07-2.05.77-2.127 1.86l-.68 9.75c-.07 1.11.75 2.06 1.85 2.14l13.96.98c1.1.08 2.05-.76 2.13-1.86l.68-9.74zM6.594 82.428c-.41-.372-.765-.23-.795.318l-.71 12.79s7.32-6.056 7.38-6.918c.06-.862-5.89-6.19-5.89-6.19z" fill="#fbf689"/><path d="M132.818 39.187c-.457-1.595-2.12-2.518-3.708-2.062l-30.558 8.762c-1.59.456-2.51 2.116-2.052 3.714l6.013 20.98c.458 1.6 2.115 2.49 3.694 2 0 0 8.686-2.74 9.42-2.63.736.11 8.236 7.34 8.236 7.34.39.38.813.23.944-.3 0 0 2.417-9.99 3.127-10.57.71-.58 8.848-2.62 8.848-2.62 1.59-.41 2.507-2.03 2.05-3.63l-6.015-20.97zm-5.5 6.914c-.304-1.06-1.408-1.68-2.466-1.37L111.4 48.59c-1.058.303-1.666 1.418-1.363 2.475l2.692 9.39c.3 1.064 1.41 1.68 2.46 1.377l13.45-3.86c1.06-.303 1.67-1.42 1.36-2.475l-2.69-9.397zm-25.31 5.93c-.512-.21-.798.05-.638.57l3.713 12.26s4.808-8.19 4.57-9.02c-.238-.83-7.645-3.8-7.645-3.8zm6.898 47.82c-.61-2.12-2.823-3.35-4.944-2.74l-46.328 13.28c-2.122.61-3.347 2.83-2.74 4.95l9.134 31.85c.61 2.13 2.82 3.31 4.925 2.66 0 0 13.36-4.21 14.45-4.05 1.094.16 12.56 11.16 12.56 11.16.393.38.818.25.95-.29 0 0 3.736-15.26 4.793-16.11 1.057-.855 13.584-4.005 13.584-4.005 2.127-.55 3.357-2.717 2.75-4.837l-9.134-31.85zm-8.336 9.73c-.303-1.05-1.404-1.67-2.48-1.36l-21.84 6.27c-1.066.31-1.682 1.42-1.382 2.47l4.517 15.757c.303 1.054 1.404 1.665 2.48 1.36l21.84-6.265c1.066-.305 1.682-1.42 1.382-2.466l-4.518-15.753zm-37.835 9.57c-.504-.2-.783.06-.623.59l5.627 18.58s7.17-12.13 6.81-13.36c-.35-1.23-11.82-5.8-11.82-5.8z" fill="#e5cd1b"/></g></svg>
