<svg xmlns="http://www.w3.org/2000/svg" viewBox="0 0 106.307 173.536" width="106.307" height="173.536"><g fill="none" fill-rule="evenodd"><path d="M33.857.917c2.91-1.824 6.687-.843 8.44 2.198L70.47 51.998c1.75 3.037.805 6.978-2.1 8.8l-30.9 19.357c-2.91 1.823-6.636.806-8.33-2.26 0 0-7.547-13.907-8.617-14.7-1.072-.79-19.76-.633-19.76-.633-.673.003-.955-.495-.628-1.118 0 0 8.926-16.868 8.693-18.54-.233-1.67-7.85-13.94-7.85-13.94-1.818-2.976-.93-6.87 1.978-8.69L33.858.917zm-.71 15.262c.582-.37 1.34-.17 1.69.44l14.418 25.01c.35.61.158 1.39-.42 1.76L31.342 54.35c-.58.364-1.34.164-1.687-.44l-14.42-25.02c-.35-.608-.16-1.396.42-1.76l17.493-10.95zm23.675 39.69c.315.12.334.37.04.55L37.58 68.1s3.318-16.258 4.547-17.028c1.23-.77 14.695 4.804 14.695 4.804z" fill="#e0ca00"/><path d="M97.662 28.89c.64-.242 1.346.105 1.578.767l6.99 20.028c.235.667-.09 1.4-.735 1.646L92.41 56.3c-.64.242-1.334-.11-1.555-.782 0 0-1.943-6.032-2.252-6.372-.308-.338-6.36-1.536-6.36-1.536-.328-.066-.42-.337-.198-.62 0 0 3.878-4.872 3.903-5.45.025-.574-2.084-6.07-2.084-6.07-.246-.647.067-1.367.713-1.612l13.085-4.965zm-1.904 5.56c.64-.244 1.348.104 1.578.765l2.888 8.27c.233.665-.092 1.4-.737 1.643l-5.31 2.015c-.64.244-1.348-.104-1.578-.764l-2.89-8.27c-.24-.67.09-1.4.74-1.65l5.31-2.02zm6.132 15.13c.284.188.26.433-.063.55l-7.103 2.568s2.2-5.464 2.678-5.645c.478-.182 4.49 2.526 4.49 2.526zM57.1 148.395c1.017-.074 1.9.724 1.97 1.782l1.364 20.328c.07 1.06-.695 1.977-1.714 2.05l-13.382.975c-1.017.076-1.88-.727-1.932-1.785 0 0-.244-5.833-.46-6.253-.214-.42-5.973-3.35-5.973-3.35-.297-.154-.304-.44-.025-.636 0 0 5.265-3.648 5.45-4.2.184-.556-.347-5.905-.347-5.905-.09-1.04.65-1.95 1.67-2.03l13.38-.97zm-2.84 4.828c.68-.05 1.267.48 1.315 1.185l.6 8.948c.047.703-.47 1.314-1.144 1.364l-5.99.437c-.68.047-1.26-.482-1.31-1.187l-.6-8.95c-.05-.702.47-1.313 1.15-1.363l5.998-.436zm1.898 16.547c.23.264.142.49-.195.51l-7.864.452s3.72-4.694 4.25-4.733c.53-.04 3.8 3.77 3.8 3.77z" fill="#f8e53d"/><path d="M82.746 88.856c.98.292 1.55 1.36 1.268 2.377l-5.387 19.59c-.28 1.018-1.3 1.608-2.284 1.314l-12.895-3.855c-.98-.293-1.53-1.355-1.23-2.368 0 0 1.685-5.568 1.62-6.038-.064-.472-4.514-5.28-4.514-5.28-.23-.25-.14-.52.185-.605 0 0 6.14-1.54 6.49-2 .35-.45 1.61-5.67 1.61-5.67.25-1.02 1.25-1.6 2.23-1.31l12.9 3.85zm-4.25 3.525c.652.2 1.032.91.845 1.59l-2.37 8.63c-.18.68-.87 1.07-1.52.878l-5.77-1.725c-.65-.196-1.03-.904-.84-1.583l2.37-8.62c.19-.68.87-1.07 1.52-.875l5.77 1.72zm-3.646 16.23c.126.33-.03.52-.354.41l-7.538-2.38s5.04-3.08 5.55-2.93c.51.16 2.34 4.9 2.34 4.9zm-29.4-4.42c1.302.39 2.06 1.81 1.684 3.17l-8.17 29.7c-.373 1.36-1.737 2.15-3.04 1.76l-19.584-5.86c-1.31-.39-2.04-1.81-1.64-3.15 0 0 2.588-8.563 2.494-9.262-.096-.7-6.863-8.056-6.863-8.056-.23-.25-.15-.523.18-.61 0 0 9.39-2.395 9.91-3.072.53-.678 2.47-8.708 2.47-8.708.34-1.367 1.67-2.155 2.98-1.766l19.583 5.858zm-5.986 5.35c.65.2 1.026.9.836 1.59l-3.85 14c-.19.69-.873 1.08-1.516.89l-9.687-2.892c-.65-.196-1.025-.9-.836-1.59l3.85-14.002c.19-.68.88-1.076 1.52-.884l9.69 2.898zm-5.884 24.25c.126.33-.034.5-.36.4l-11.42-3.61s7.46-4.59 8.214-4.37c.757.23 3.567 7.58 3.567 7.58z" fill="#e0ca00"/></g></svg>
