<svg xmlns="http://www.w3.org/2000/svg" viewBox="0 0 272 174">
  <g fill="none" fill-rule="evenodd">
    <path fill="#E0CA00" d="M2.15 118.697c-2.845-4.732-1.314-10.874 3.43-13.724l76.254-45.818c4.738-2.847 10.886-1.314 13.728 3.415l30.195 50.253c2.844 4.733 1.258 10.79-3.526 13.542 0 0-21.693 12.276-22.928 14.017-1.234 1.742-.99 32.135-.99 32.135.005 1.095-.772 1.553-1.744 1.022 0 0-26.312-14.516-28.92-14.138-2.606.377-21.745 12.765-21.745 12.765-4.644 2.957-10.717 1.513-13.558-3.216L2.15 118.698zm23.808 1.154c-.57-.946-.256-2.178.687-2.745l39.026-23.45c.95-.57 2.182-.258 2.748.683l17.093 28.448c.57.946.258 2.178-.686 2.745l-39.026 23.45c-.95.57-2.18.26-2.747-.682L25.96 119.85zm61.927-38.503c.2-.512.587-.542.864-.065l18.202 31.36s-25.36-5.396-26.562-7.395c-1.2-2 7.495-23.9 7.495-23.9z"/>
    <path fill="#F8E53D" d="M45.787 14.93c-.378-1.04.163-2.19 1.197-2.567L78.226.993c1.04-.38 2.185.148 2.567 1.197l7.746 21.28c.377 1.04-.17 2.17-1.22 2.53 0 0-9.41 3.16-9.94 3.663-.528.5-2.396 10.345-2.396 10.345-.103.532-.526.68-.965.32 0 0-7.603-6.307-8.502-6.348-.898-.04-9.47 3.39-9.47 3.39-1.01.4-2.133-.11-2.515-1.16l-7.746-21.28zm8.673 3.096c-.38-1.04.163-2.193 1.193-2.567l12.9-4.697c1.038-.378 2.183.15 2.565 1.2l3.143 8.634c.38 1.04-.163 2.193-1.192 2.567l-12.9 4.696c-1.04.378-2.183-.15-2.566-1.2l-3.142-8.634zm23.6-9.973c.295-.462.678-.422.86.102l4.006 11.553s-8.523-3.578-8.806-4.356c-.283-.777 3.94-7.3 3.94-7.3zM232.21 80.898c-.116-1.655 1.13-3.09 2.78-3.206l31.71-2.218c1.652-.115 3.084 1.13 3.2 2.788l1.52 21.763c.117 1.655-1.136 3.06-2.786 3.142 0 0-9.1.397-9.755.747-.656.35-5.228 9.716-5.228 9.716-.238.483-.685.495-.99.04 0 0-5.69-8.562-6.554-8.863-.865-.3-9.21.564-9.21.564-1.633.16-3.05-1.05-3.167-2.71L232.21 80.9zm7.532 4.617c-.078-1.104.75-2.06 1.848-2.138l13.96-.976c1.097-.076 2.05.764 2.127 1.86l.682 9.747c.076 1.104-.75 2.06-1.85 2.138l-13.96.976c-1.097.078-2.05-.762-2.127-1.858l-.68-9.747zm25.812-3.087c.41-.372.765-.23.795.318l.704 12.79s-7.322-6.056-7.383-6.918c-.06-.862 5.884-6.19 5.884-6.19z"/>
    <path fill="#E0CA00" d="M139.33 39.187c.457-1.595 2.12-2.518 3.708-2.062l30.558 8.762c1.59.456 2.51 2.116 2.052 3.714l-6.013 20.972c-.458 1.595-2.115 2.486-3.694 2 0 0-8.686-2.74-9.42-2.636-.736.105-8.236 7.342-8.236 7.342-.39.373-.813.23-.944-.3 0 0-2.417-9.992-3.127-10.57-.71-.58-8.848-2.62-8.848-2.62-1.59-.41-2.507-2.033-2.05-3.63l6.015-20.97zm5.5 6.914c.304-1.062 1.408-1.68 2.466-1.375l13.452 3.857c1.058.303 1.666 1.418 1.363 2.475l-2.692 9.392c-.305 1.063-1.41 1.68-2.468 1.376l-13.45-3.858c-1.06-.303-1.668-1.418-1.365-2.475l2.694-9.392zm25.31 5.93c.512-.21.798.044.638.57l-3.713 12.26s-4.808-8.195-4.57-9.026c.238-.83 7.645-3.805 7.645-3.805zM163.242 99.845c.61-2.123 2.823-3.352 4.944-2.744l46.328 13.286c2.122.608 3.347 2.826 2.74 4.947l-9.134 31.85c-.61 2.124-2.82 3.31-4.925 2.66 0 0-13.36-4.208-14.45-4.055-1.094.153-12.56 11.158-12.56 11.158-.393.376-.818.245-.95-.29 0 0-3.736-15.258-4.793-16.116-1.057-.857-13.584-4.007-13.584-4.007-2.127-.548-3.357-2.717-2.75-4.837l9.134-31.85zm8.336 9.73c.303-1.057 1.404-1.668 2.48-1.36l21.84 6.263c1.066.306 1.682 1.42 1.382 2.467l-4.517 15.753c-.303 1.056-1.404 1.667-2.48 1.36l-21.84-6.263c-1.066-.306-1.682-1.42-1.382-2.467l4.518-15.753zm37.835 9.57c.504-.204.783.057.623.586l-5.627 18.576s-7.17-12.133-6.816-13.36c.352-1.23 11.82-5.8 11.82-5.8z"/>
  </g>
</svg>
