<svg xmlns="http://www.w3.org/2000/svg" viewBox="0 0 115 108">
  <path fill="#FFF" fill-rule="evenodd" d="M2.176 57.268C-1.234 51.59.608 44.22 6.278 40.813L70.58 2.176C76.26-1.234 83.63.613 87.037 6.28l25.76 42.87c3.41 5.678 1.505 12.945-4.24 16.255 0 0-17.187 9.67-18.294 11.276-1.107 1.607-.466 28.812-.466 28.812.034 1.652-1.11 2.324-2.54 1.516 0 0-23.363-13.363-25.75-13.05-2.385.316-17.283 10.032-17.283 10.032-5.584 3.55-12.882 1.816-16.287-3.85L2.176 57.268zm20.588-.686c-.57-.95-.264-2.184.673-2.746L58.595 32.71c.943-.566 2.17-.254 2.74.695l15.96 26.56c.57.95.263 2.184-.674 2.746L41.464 83.838c-.943.566-2.17.254-2.74-.695l-15.96-26.56zm56.143-35.036c.194-.52.574-.557.85-.08l17.12 29.457s-23.337-5.398-24.468-7.28c-1.13-1.88 6.497-22.097 6.497-22.097z"/>
</svg>
