<?xml version="1.0" encoding="UTF-8" standalone="no"?>
<svg width="115px" height="108px" viewBox="0 0 115 108" version="1.1" xmlns="http://www.w3.org/2000/svg" xmlns:xlink="http://www.w3.org/1999/xlink" xmlns:sketch="http://www.bohemiancoding.com/sketch/ns">
    <!-- Generator: Sketch 3.4.4 (17249) - http://www.bohemiancoding.com/sketch -->
    <title>logo-329</title>
    <desc>Created with Sketch.</desc>
    <defs></defs>
    <g id="Page-1" stroke="none" stroke-width="1" fill="none" fill-rule="evenodd" sketch:type="MSPage">
        <path d="M14.5592573,26.3789186 C14.5592573,19.7558003 19.9346183,14.386702 26.550258,14.386702 L101.568257,14.386702 C108.190703,14.386702 113.559257,19.7682073 113.559257,26.3789186 L113.559257,76.3944854 C113.559257,83.0176037 108.183109,88.2651146 101.553539,88.1425652 C101.553539,88.1425652 81.8412397,87.5803055 80.0651166,88.386702 C78.2889936,89.1930985 64.8264514,112.842667 64.8264514,112.842667 C64.0049781,114.27534 62.6781081,114.262988 61.8679477,112.83253 C61.8679477,112.83253 48.7252729,89.3459305 46.5182416,88.386702 C44.3112104,87.4274735 26.5370376,88.082831 26.5370376,88.082831 C19.9218922,88.2506543 14.5592573,83.0051967 14.5592573,76.3944854 L14.5592573,26.3789186 Z M32.5592573,36.3941632 C32.5592573,35.285473 33.4581493,34.386702 34.5509148,34.386702 L75.5675997,34.386702 C76.6675618,34.386702 77.5592573,35.2870475 77.5592573,36.3941632 L77.5592573,67.3792408 C77.5592573,68.487931 76.6603652,69.386702 75.5675997,69.386702 L34.5509148,69.386702 C33.4509527,69.386702 32.5592573,68.4863565 32.5592573,67.3792408 L32.5592573,36.3941632 Z M98.7281585,35.2784983 C99.1616778,34.9332128 99.5066447,35.0966108 99.4986242,35.6461488 L99.0013959,69.7148265 C99.0013959,69.7148265 81.7776206,53.0682426 81.7776206,50.8729298 C81.7776206,48.677617 98.7281585,35.2784983 98.7281585,35.2784983 Z" id="logo" fill="#FFFFFF" sketch:type="MSShapeGroup" transform="translate(64.059257, 64.148996) rotate(-31.000000) translate(-64.059257, -64.148996) "></path>
    </g>
</svg>